HIERARCHY
ROOT Hips
{
    OFFSET 0.000000 0.000000 0.000000
    CHANNELS 6 Xposition Yposition Zposition Zrotation Xrotation Yrotation
        JOINT Chest
        {
            OFFSET -0.000000 31.780966 -0.000000
            CHANNELS 3 Zrotation Xrotation Yrotation
            JOINT Neck
            {
                OFFSET -0.000000 23.880144 0.000000
                CHANNELS 3 Zrotation Xrotation Yrotation
                JOINT Head
                {
                    OFFSET -0.000000 10.511110 0.000000
                    CHANNELS 3 Zrotation Xrotation Yrotation
                    End Site
                    {
                        OFFSET -0.000000 16.244448 0.000000
                    }
                }
            }
            JOINT LeftCollar
            {
                OFFSET -0.000000 23.880144 0.000000
                CHANNELS 3 Zrotation Xrotation Yrotation
                JOINT LeftShoulder
                {
                    OFFSET 19.111111 -0.000000 0.000000
                    CHANNELS 3 Zrotation Xrotation Yrotation
                    JOINT LeftElbow
                    {
                        OFFSET 21.456259 0.000000 0.000000
                        CHANNELS 3 Zrotation Xrotation Yrotation
                        JOINT LeftWrist
                        {
                            OFFSET 25.693237 0.000000 0.000000
                            CHANNELS 3 Zrotation Xrotation Yrotation
                            End Site
                            {
                                OFFSET 0.000000 -14.333333 0.000000
                            }
                        }
                    }
                }
            }
            JOINT RightCollar
            {
                OFFSET -0.000000 23.880144 0.000000
                CHANNELS 3 Zrotation Xrotation Yrotation
                JOINT RightShoulder
                {
                    OFFSET -19.111111 0.000000 0.000000
                    CHANNELS 3 Zrotation Xrotation Yrotation
                    JOINT RightElbow
                    {
                        OFFSET -21.456259 0.000000 0.000000
                        CHANNELS 3 Zrotation Xrotation Yrotation
                        JOINT RightWrist
                        {
                            OFFSET -25.693237 0.000000 0.000000
                            CHANNELS 3 Zrotation Xrotation Yrotation
                            End Site
                            {
                                OFFSET -0.000000 -14.333333 0.000000
                            }
                        }
                    }
                }
            }
        }
    JOINT LeftHip
    {
        OFFSET 11.466667 0.000000 0.000000
        CHANNELS 3 Zrotation Xrotation Yrotation
        JOINT LeftKnee
        {
            OFFSET -0.000000 -37.225342 0.000000
            CHANNELS 3 Zrotation Xrotation Yrotation
            JOINT LeftAnkle
            {
                OFFSET -0.000000 -35.678333 0.000000
                CHANNELS 3 Zrotation Xrotation Yrotation
                End Site
                {
                    OFFSET -0.000000 -4.777778 16.244448
                }
            }
        }
    }
    JOINT RightHip
    {
        OFFSET -11.466667 0.000000 0.000000
        CHANNELS 3 Zrotation Xrotation Yrotation
        JOINT RightKnee
        {
            OFFSET -0.000000 -37.225342 0.000000
            CHANNELS 3 Zrotation Xrotation Yrotation
            JOINT RightAnkle
            {
                OFFSET -0.000000 -35.678333 0.000000
                CHANNELS 3 Zrotation Xrotation Yrotation
                End Site
                {
                    OFFSET -0.000000 -4.777778 16.244448
                }
            }
        }
    }
}
MOTION
Frames:    8
Frame Time:    0.010000
-23.571306    83.452690    -93.505348    0.046479    7.244589    33.664539    1.468504    2.531207    -9.035884    8.532752    -4.966529    -3.154647    -10.301184    5.393591    -3.208108    -13.776094    -0.300642    2.719789    -0.929505    68.275993    -77.991859    17.916758    -8.365797    -49.879513    129.641205    27.901760    38.965141    16.062563    -0.634567    -4.355134    52.054005    32.513023    16.827816    13.693528    6.828475    52.843437    -135.383072    -20.012440    20.653807    -1.349399    -1.793028    4.626883    0.614034    5.489890    32.174572    -11.796036    -9.425627    4.676610    -7.977392    -13.539531    4.006101    -3.985188    18.851625    1.818428    1.534898    -7.787758    -11.210265    
-23.418003    83.372536    -93.562439    -0.070398    6.894448    33.631897    1.675101    2.350874    -8.941559    7.605800    -2.390106    -1.200352    -9.061256    4.633837    -0.952237    -14.310825    -0.566964    6.247548    -3.467006    67.951004    -75.021851    18.022659    -8.437084    -49.964191    129.053940    26.861588    40.055538    15.963736    -0.210555    1.503759    54.054543    30.262432    13.579792    15.267142    7.944080    51.524426    -136.681320    -21.825920    21.322821    -1.155961    -1.415725    5.237182    0.767204    5.349159    30.842209    -11.900316    -9.554031    5.123239    -7.708051    -13.024704    4.091848    -4.155955    18.301228    1.477073    1.829786    -7.569674    -10.932137    
-23.160929    83.359421    -93.701035    0.128981    7.028051    33.510521    1.365973    2.271197    -8.835382    7.575015    -2.487564    -1.173605    -9.193256    4.528564    -0.972177    -14.462770    -0.713004    6.545964    -0.752220    68.117554    -77.555717    18.291441    -8.622137    -49.762005    129.327316    28.110195    39.491455    16.057056    -0.021729    1.137230    53.412453    31.190046    14.247881    14.881510    7.351966    52.108406    -135.819382    -20.743071    20.928648    -1.732550    -1.214277    4.865651    0.857702    4.940959    31.621000    -11.014551    -9.491650    4.819839    -8.215039    -13.130148    4.025587    -4.176905    18.471466    1.715504    2.151454    -7.686649    -10.837503    
-22.997644    83.340218    -93.794403    0.179605    6.964420    33.449867    1.272778    2.282315    -8.766217    7.512812    -2.555884    -1.179824    -9.104959    4.640082    -0.977742    -14.506311    -0.784070    6.609307    -0.100394    68.166718    -78.124535    18.300383    -8.564090    -49.793037    129.404922    28.362696    39.549767    16.036474    0.076777    1.237219    53.546761    30.831745    14.197833    14.992579    7.402365    52.084492    -135.839432    -20.731348    20.887785    -1.918471    -0.997502    4.901378    0.940818    4.718373    31.533092    -10.734740    -9.505708    4.837909    -8.350034    -13.005372    4.034855    -4.234205    18.374996    1.694259    2.380049    -7.664400    -10.709576    
-22.807455    83.322319    -93.908249    0.242140    6.899357    33.381638    1.156909    2.292711    -8.688098    7.443208    -2.619852    -1.179490    -9.005387    4.758021    -0.973861    -14.554293    -0.834197    6.688262    0.519917    68.189270    -78.672989    18.339041    -8.556240    -49.807304    129.476685    28.601740    39.504642    16.019258    0.138961    1.353822    53.705048    30.503401    14.097901    15.162454    7.485705    52.009956    -135.910904    -20.695040    20.786835    -2.143841    -0.755100    4.922375    1.030404    4.461664    31.475157    -10.420025    -9.519086    4.844511    -8.519500    -12.879665    4.046505    -4.292538    18.287508    1.673597    2.642956    -7.646051    -10.575534    
-22.593769    83.305809    -94.040520    0.316290    6.834849    33.308887    1.018816    2.304657    -8.603416    7.372352    -2.688557    -1.180170    -8.900780    4.878239    -0.974879    -14.603144    -0.839957    6.761677    1.022918    68.169052    -79.112587    18.289757    -8.551622    -49.857136    129.676010    28.862982    39.317440    16.006184    0.166625    1.457936    53.867283    30.228008    13.979193    15.323258    7.561133    51.947842    -135.940048    -20.613619    20.656269    -2.404914    -0.494308    4.925066    1.122149    4.178739    31.455956    -10.074112    -9.532405    4.834541    -8.721866    -12.760330    4.060769    -4.348404    18.218855    1.652355    2.932693    -7.633270    -10.441433    
-22.360926    83.290657    -94.188484    0.401247    6.772160    33.235126    0.860427    2.319708    -8.515031    7.302377    -2.758294    -1.185792    -8.792962    4.994122    -0.978021    -14.642586    -0.872830    6.827449    1.423129    68.175919    -79.476707    18.359232    -8.571720    -49.864582    129.740936    29.066545    39.060596    15.996992    0.205962    1.545677    54.012112    29.981623    13.879485    15.518160    7.653763    51.853405    -135.986145    -20.505255    20.473135    -2.695617    -0.222935    4.909125    1.211519    3.879580    31.479784    -9.700488    -9.547132    4.802763    -8.953729    -12.654346    4.077220    -4.398610    18.179169    1.629323    3.240860    -7.627452    -10.313029    
-22.113762    83.276787    -94.349167    0.495853    6.711949    33.164085    0.684305    2.339767    -8.425809    7.234747    -2.825621    -1.195348    -8.682484    5.100065    -0.986310    -14.673952    -0.911111    6.884746    1.663617    68.193710    -79.694038    18.346153    -8.587076    -49.907398    129.971222    29.307909    38.689663    15.992561    0.240117    1.613716    54.135269    29.794907    13.800282    15.672845    7.712961    51.802937    -135.968994    -20.351938    20.268198    -3.008496    0.051067    4.876927    1.293970    3.575127    31.546326    -9.302303    -9.565152    4.745308    -9.210484    -12.568186    4.095055    -4.440565    18.178305    1.602972    3.558838    -7.629565    -10.194425    
